# xmcd
#
# Track frame offsets:
#	150
#	16141
#	31876
#	45111
#	62389
#	79196
#	90814
#	103475
#	119448
#	139556
#	159307
#	174664
#	190573
#	206715
#	224113
#	238613
#	253179
#	269094
#	285760
#	300990
#
# Disc length: 4214 seconds
#
# Revision: 1
# Processed by: cddbd v1.5.2PL0 Copyright (c) Steve Scherf et al.
# Submitted via: audiograbber 1.83.01
#
DISCID=08107414
DTITLE=SCHLAGER - DAS NEUE GEFÜHL FÜR SCHLAGER  VOL. 1
DYEAR=1997
DGENRE=
TTITLE0=MICHELLE - ER NANNTE SIE  MY BABY JANE
TTITLE1=TOMMY STEINER - ICH HAB DICH NIE AUS DEN AUGEN VERLOR'N
TTITLE2=CINDY and BERT - LUST AUF DICH
TTITLE3=OLAF BERGER - EVIVA AMOR
TTITLE4=NINA FALK - SPIEL MIT DEM WIND
TTITLE5=ERIK SILVESTER - MANANA
TTITLE6=GABY BAGINSKY - KLEINER GITANO
TTITLE7=JÖRG HINDEMITH - AUCH EIN ENGEL HAT MAL SORGEN
TTITLE8=MICHAELA - WEIL ICH DICH LIEBE 
TTITLE9=ALEXANDER M. HELMER - WIE EIN KOMET
TTITLE10=IREEN SHEER - NINA BOBO
TTITLE11=MICHAEL STEIN - DU KANNST MICH MAL AM ABEND BESUCHEN
TTITLE12=KRISTINA BACH - DANN BIST DU FÜR MICH DA 
TTITLE13=OLIVER SIMON - DU ICH BRAUCH' DICH
TTITLE14=GITTI and ERIKA - AN MEINEN MANN
TTITLE15=MARC BUCHNER - GEGEN DEN STROM
TTITLE16=SANDY VAN RY - AUF MEINE ART WER'D   ICH DICH IMMER WIEDER LIEBEN
TTITLE17=MARK BENDER - IM NAMEN DER ROSE
TTITLE18=ULLA NORDEN  - DU BIST MEIN SCHÖNSTES GESCHENK 
TTITLE19=DRAFI DEUTSCHER - DAS IST ER
EXTD=
EXTT0=
EXTT1=
EXTT2=
EXTT3=
EXTT4=
EXTT5=
EXTT6=
EXTT7=
EXTT8=
EXTT9=
EXTT10=
EXTT11=
EXTT12=
EXTT13=
EXTT14=
EXTT15=
EXTT16=
EXTT17=
EXTT18=
EXTT19=
PLAYORDER=
